REM DIRINDEX 1\2,1\3,1\4,1\5\6,1\5\7,1\8
REM DIRNAME folder01,folder02,folder03,folder04,folder05,folder06,folder07,folder08
TITLE ""
FILE "142 【142】Unit8 (1609 disorient_1620 pedestrian).mp3" MP3
  TRACK 01 AUDIO
    TITLE "0:"
    INDEX 01 00:00:00
  TRACK 02 AUDIO
    TITLE "2:cjc115_5540"
    INDEX 01 00:00:07
  TRACK 03 AUDIO
    TITLE "0:"
    INDEX 01 00:01:44
  TRACK 04 AUDIO
    TITLE "3:cjc115_5541"
    INDEX 01 00:01:56
  TRACK 05 AUDIO
    TITLE "0:"
    INDEX 01 00:04:44
  TRACK 06 AUDIO
    TITLE "4:cjc115_5542"
    INDEX 01 00:04:50
  TRACK 07 AUDIO
    TITLE "0:"
    INDEX 01 00:07:72
  TRACK 08 AUDIO
    TITLE "2:cjc115_5543"
    INDEX 01 00:09:06
  TRACK 09 AUDIO
    TITLE "0:"
    INDEX 01 00:10:25
  TRACK 10 AUDIO
    TITLE "3:cjc115_5544"
    INDEX 01 00:10:33
  TRACK 11 AUDIO
    TITLE "0:"
    INDEX 01 00:11:72
  TRACK 12 AUDIO
    TITLE "4:cjc115_5545"
    INDEX 01 00:12:07
  TRACK 13 AUDIO
    TITLE "0:"
    INDEX 01 00:15:56
  TRACK 14 AUDIO
    TITLE "2:cjc115_5546"
    INDEX 01 00:16:67
  TRACK 15 AUDIO
    TITLE "0:"
    INDEX 01 00:18:35
  TRACK 16 AUDIO
    TITLE "3:cjc115_5547"
    INDEX 01 00:18:44
  TRACK 17 AUDIO
    TITLE "0:"
    INDEX 01 00:20:43
  TRACK 18 AUDIO
    TITLE "4:cjc115_5548"
    INDEX 01 00:20:51
  TRACK 19 AUDIO
    TITLE "0:"
    INDEX 01 00:24:29
  TRACK 20 AUDIO
    TITLE "2:cjc115_5549"
    INDEX 01 00:25:39
  TRACK 21 AUDIO
    TITLE "0:"
    INDEX 01 00:26:67
  TRACK 22 AUDIO
    TITLE "3:cjc115_5550"
    INDEX 01 00:27:02
  TRACK 23 AUDIO
    TITLE "0:"
    INDEX 01 00:29:15
  TRACK 24 AUDIO
    TITLE "4:cjc115_5551"
    INDEX 01 00:29:23
  TRACK 25 AUDIO
    TITLE "0:"
    INDEX 01 00:33:60
  TRACK 26 AUDIO
    TITLE "2:cjc115_5552"
    INDEX 01 00:34:69
  TRACK 27 AUDIO
    TITLE "0:"
    INDEX 01 00:36:11
  TRACK 28 AUDIO
    TITLE "3:cjc115_5553"
    INDEX 01 00:36:21
  TRACK 29 AUDIO
    TITLE "0:"
    INDEX 01 00:38:43
  TRACK 30 AUDIO
    TITLE "4:cjc115_5554"
    INDEX 01 00:38:51
  TRACK 31 AUDIO
    TITLE "0:"
    INDEX 01 00:41:30
  TRACK 32 AUDIO
    TITLE "2:cjc115_5555"
    INDEX 01 00:42:39
  TRACK 33 AUDIO
    TITLE "0:"
    INDEX 01 00:43:68
  TRACK 34 AUDIO
    TITLE "3:cjc115_5556"
    INDEX 01 00:44:05
  TRACK 35 AUDIO
    TITLE "0:"
    INDEX 01 00:46:15
  TRACK 36 AUDIO
    TITLE "4:cjc115_5557"
    INDEX 01 00:46:23
  TRACK 37 AUDIO
    TITLE "0:"
    INDEX 01 00:48:65
  TRACK 38 AUDIO
    TITLE "2:cjc115_5558"
    INDEX 01 00:50:01
  TRACK 39 AUDIO
    TITLE "0:"
    INDEX 01 00:51:11
  TRACK 40 AUDIO
    TITLE "3:cjc115_5559"
    INDEX 01 00:51:20
  TRACK 41 AUDIO
    TITLE "0:"
    INDEX 01 00:54:17
  TRACK 42 AUDIO
    TITLE "4:cjc115_5560"
    INDEX 01 00:54:27
  TRACK 43 AUDIO
    TITLE "0:"
    INDEX 01 00:58:15
  TRACK 44 AUDIO
    TITLE "2:cjc115_5561"
    INDEX 01 00:59:24
  TRACK 45 AUDIO
    TITLE "0:"
    INDEX 01 01:00:57
  TRACK 46 AUDIO
    TITLE "3:cjc115_5562"
    INDEX 01 01:00:64
  TRACK 47 AUDIO
    TITLE "0:"
    INDEX 01 01:02:08
  TRACK 48 AUDIO
    TITLE "4:cjc115_5563"
    INDEX 01 01:02:16
  TRACK 49 AUDIO
    TITLE "0:"
    INDEX 01 01:06:55
  TRACK 50 AUDIO
    TITLE "2:cjc115_5564"
    INDEX 01 01:07:63
  TRACK 51 AUDIO
    TITLE "0:"
    INDEX 01 01:09:12
  TRACK 52 AUDIO
    TITLE "3:cjc115_5565"
    INDEX 01 01:09:22
  TRACK 53 AUDIO
    TITLE "0:"
    INDEX 01 01:10:69
  TRACK 54 AUDIO
    TITLE "4:cjc115_5566"
    INDEX 01 01:11:02
  TRACK 55 AUDIO
    TITLE "0:"
    INDEX 01 01:15:52
  TRACK 56 AUDIO
    TITLE "2:cjc115_5567"
    INDEX 01 01:16:60
  TRACK 57 AUDIO
    TITLE "0:"
    INDEX 01 01:18:39
  TRACK 58 AUDIO
    TITLE "3:cjc115_5568"
    INDEX 01 01:18:49
  TRACK 59 AUDIO
    TITLE "0:"
    INDEX 01 01:21:39
  TRACK 60 AUDIO
    TITLE "4:cjc115_5569"
    INDEX 01 01:21:49
  TRACK 61 AUDIO
    TITLE "0:"
    INDEX 01 01:25:70
  TRACK 62 AUDIO
    TITLE "2:cjc115_5570"
    INDEX 01 01:27:04
  TRACK 63 AUDIO
    TITLE "0:"
    INDEX 01 01:28:33
  TRACK 64 AUDIO
    TITLE "3:cjc115_5571"
    INDEX 01 01:28:41
  TRACK 65 AUDIO
    TITLE "0:"
    INDEX 01 01:31:02
  TRACK 66 AUDIO
    TITLE "4:cjc115_5572"
    INDEX 01 01:31:10
  TRACK 67 AUDIO
    TITLE "0:"
    INDEX 01 01:36:45
  TRACK 68 AUDIO
    TITLE "2:cjc115_5573"
    INDEX 01 01:37:54
  TRACK 69 AUDIO
    TITLE "0:"
    INDEX 01 01:39:12
  TRACK 70 AUDIO
    TITLE "3:cjc115_5574"
    INDEX 01 01:39:21
  TRACK 71 AUDIO
    TITLE "0:"
    INDEX 01 01:40:27
  TRACK 72 AUDIO
    TITLE "4:cjc115_5575"
    INDEX 01 01:40:38
  TRACK 73 AUDIO
    TITLE "0:"
    INDEX 01 01:45:14
